<?xml version="1.0" encoding="UTF-8"?> <svg xmlns="http://www.w3.org/2000/svg" width="48" height="48" viewBox="0 0 48 48" fill="none"> <path fill-rule="evenodd" clip-rule="evenodd" d="M46.8705 11.9826C47.2263 10.8642 46.8705 10.0508 45.2946 10.0508H40.0585C38.7368 10.0508 38.1267 10.7625 37.7709 11.5251C37.7709 11.5251 35.0766 18.032 31.3148 22.2514C30.0947 23.4714 29.5355 23.8781 28.8747 23.8781C28.5188 23.8781 28.0613 23.4714 28.0613 22.3531V11.9318C28.0613 10.61 27.6546 10 26.5362 10H18.3008C17.4875 10 16.9791 10.61 16.9791 11.2201C16.9791 12.4909 18.86 12.796 19.0634 16.3545V24.0815C19.0634 25.759 18.7584 26.0641 18.0975 26.0641C16.3182 26.0641 11.9972 19.5063 9.4046 12.0334C8.89624 10.5592 8.38788 10 7.06616 10H1.77925C0.254178 10 0 10.7117 0 11.4742C0 12.8468 1.77925 19.7604 8.28621 28.9109C12.6072 35.1636 18.7584 38.5188 24.2994 38.5188C27.6546 38.5188 28.0613 37.7563 28.0613 36.4854V31.7577C28.0613 30.2326 28.3663 29.9784 29.4338 29.9784C30.1964 29.9784 31.5689 30.3851 34.6699 33.3844C38.2284 36.9429 38.8384 38.5696 40.821 38.5696H46.0571C47.5822 38.5696 48.2939 37.8071 47.8872 36.3329C47.4297 34.8586 45.7013 32.7235 43.4645 30.1817C42.2444 28.7584 40.4143 27.1824 39.8552 26.4199C39.0926 25.4032 39.296 24.9965 39.8552 24.0815C39.8043 24.0815 46.2096 15.0327 46.8705 11.9826Z" fill="#333333"></path> </svg> 